{"glyphs":{"0":{"ha":967,"x_min":0,"x_max":0,"o":"m 224 557 b 713 557 224 908 713 904 l 713 417 b 224 417 713 64 224 64 z m 42 417 b 894 417 42 -164 894 -162 l 894 557 b 42 557 894 1136 42 1138 z "},"1":{"ha":513,"x_min":0,"x_max":0,"o":"m 13 0 l 475 0 l 475 156 l 340 156 l 340 972 l 7 972 l 7 806 l 158 806 l 158 156 l 13 156 z "},"2":{"ha":910,"x_min":0,"x_max":0,"o":"m 238 690 b 433 826 239 778 338 826 b 654 671 558 826 654 776 b 446 546 654 558 519 546 b 51 256 254 546 51 479 b 51 0 51 169 51 85 l 839 0 l 839 171 l 235 171 l 235 254 b 446 381 235 360 365 381 b 836 675 650 381 836 428 b 431 985 836 906 625 985 b 56 690 251 985 57 896 z "},"3":{"ha":908,"x_min":0,"x_max":0,"o":"m 424 424 b 631 293 599 424 631 351 b 414 150 631 189 507 150 b 200 285 335 150 200 185 l 15 285 b 413 -14 17 64 228 -14 b 824 294 600 -14 824 57 b 665 499 824 376 758 468 b 800 690 750 525 800 614 b 418 986 799 897 601 986 b 31 700 239 986 31 910 l 214 700 b 417 819 214 789 331 819 b 617 690 572 819 617 746 b 413 574 615 600 511 574 l 272 574 l 272 424 l 424 424 z "},"4":{"ha":943,"x_min":0,"x_max":0,"o":"m 481 971 l 43 371 l 60 185 l 579 185 l 579 0 l 760 0 l 760 185 l 874 185 l 874 363 l 760 363 l 760 971 z m 250 363 l 579 813 l 579 363 z "},"5":{"ha":874,"x_min":0,"x_max":0,"o":"m 775 971 l 71 971 b 71 457 71 794 71 632 l 439 457 b 647 315 539 457 649 425 b 446 158 647 200 535 158 b 232 293 354 158 232 186 l 50 293 b 449 -11 51 65 235 -11 b 829 315 644 -11 829 94 b 439 628 831 543 646 628 l 250 628 l 250 799 l 775 799 z "},"6":{"ha":919,"x_min":0,"x_max":0,"o":"m 222 668 b 443 832 222 774 333 833 b 656 703 547 832 656 789 l 839 703 b 440 990 839 907 651 990 b 40 672 240 990 40 889 l 40 310 b 446 -15 40 92 247 -15 b 849 307 642 -15 849 92 b 447 631 849 549 643 631 b 222 528 371 631 265 594 l 222 674 z m 446 149 b 222 307 326 149 224 200 b 447 471 221 415 325 471 b 667 307 569 471 667 414 b 446 149 667 200 561 149 z "},"7":{"ha":792,"x_min":0,"x_max":0,"o":"m 315 0 l 751 875 l 742 972 l 28 972 l 28 797 l 501 797 l 104 0 z "},"8":{"ha":943,"x_min":0,"x_max":0,"o":"m 447 429 b 675 290 569 429 674 386 b 447 144 676 214 596 144 b 219 290 299 144 218 215 b 447 429 221 386 333 429 z m 28 293 b 446 -22 24 65 235 -21 b 867 293 663 -24 871 67 b 719 510 865 368 819 469 b 844 693 807 546 844 626 b 446 989 844 888 656 989 b 54 693 235 989 54 889 b 176 501 54 618 93 546 b 28 293 76 461 29 368 z m 242 699 b 446 836 239 765 308 836 b 653 699 569 836 656 781 b 447 563 650 614 560 563 b 242 699 340 563 244 614 z "},"9":{"ha":938,"x_min":0,"x_max":0,"o":"m 667 307 b 446 143 667 201 556 142 b 228 272 342 143 228 186 l 44 272 b 449 -15 44 68 238 -15 b 849 303 649 -15 849 86 l 849 665 b 443 990 849 883 642 990 b 40 668 247 990 40 883 b 442 344 40 426 246 344 b 667 447 518 344 624 381 l 667 301 z m 443 826 b 667 668 563 826 665 775 b 442 504 668 560 564 504 b 222 668 319 504 222 561 b 443 826 222 775 328 826 z "},"\u0000":{"ha":281,"x_min":0,"x_max":0,"o":""}," ":{"ha":281,"x_min":0,"x_max":0,"o":""},"ð":{"ha":817,"x_min":0,"x_max":0,"o":"m 319 664 b 44 331 136 631 44 482 b 399 -12 44 157 163 -12 b 751 349 619 -12 751 136 b 497 875 751 556 692 722 l 549 935 l 465 994 l 406 924 b 222 974 353 947 293 964 l 192 836 b 306 804 224 832 275 822 l 269 761 l 351 707 l 394 756 b 533 621 421 749 508 688 b 319 664 489 660 394 675 z m 399 139 b 218 332 279 139 218 235 b 399 524 218 428 279 524 b 578 332 518 524 578 428 b 399 139 578 235 518 139 z "},"þ":{"ha":867,"x_min":0,"x_max":0,"o":"m 435 147 b 240 342 328 147 240 235 b 435 536 240 449 328 536 b 629 342 542 536 629 465 b 435 147 629 218 542 147 z m 225 -286 l 225 93 b 451 -17 279 11 379 -17 b 799 342 651 -17 799 106 b 449 700 799 578 649 700 b 225 592 371 700 271 664 l 225 972 l 56 972 l 56 -286 z "},"£":{"ha":874,"x_min":0,"x_max":0,"o":"m 319 667 b 490 826 319 753 363 826 b 656 694 593 826 647 785 l 824 694 b 489 988 814 901 683 988 b 135 664 269 988 135 868 b 160 524 135 619 149 567 l 61 524 l 61 369 l 189 369 b 61 174 192 274 153 196 l 61 0 b 828 0 372 0 517 0 l 828 174 l 283 174 b 374 369 360 210 379 306 l 629 369 l 629 524 l 342 524 b 319 667 331 571 319 618 z "},"'":{"ha":297,"x_min":0,"x_max":0,"o":"m 63 971 l 63 599 l 217 599 l 217 971 z "},"&":{"ha":1007,"x_min":0,"x_max":0,"o":"m 453 425 b 664 425 524 425 593 425 l 664 285 b 461 151 664 186 526 151 b 258 294 360 151 258 192 b 453 425 258 353 318 425 z m 838 425 l 918 425 l 918 569 b 463 569 767 569 614 569 b 275 696 397 569 275 597 b 464 832 274 753 321 832 b 650 713 563 832 650 801 l 824 713 b 468 988 822 922 638 988 b 97 696 294 988 99 903 b 228 499 97 619 140 526 b 78 296 138 468 78 378 b 464 -12 79 56 251 -12 b 742 124 567 -12 678 19 b 925 -4 772 13 853 -4 l 925 178 b 838 283 863 178 838 226 z "},"%":{"ha":1075,"x_min":0,"x_max":0,"o":"m 265 990 b 265 554 -36 990 -36 554 b 265 990 567 554 567 990 z m 747 974 l 107 -1 l 304 -1 l 943 974 z m 793 426 b 793 -10 492 426 492 -10 b 793 426 1094 -10 1094 426 z m 793 299 b 793 117 913 299 913 117 b 793 299 674 117 674 299 z m 265 864 b 265 682 385 864 385 682 b 265 864 146 682 146 864 z "},"$":{"ha":1079,"x_min":0,"x_max":0,"o":"m 881 808 b 592 999 818 936 710 981 l 592 1119 l 415 1119 l 415 999 b 93 714 254 979 93 896 b 486 426 93 483 288 449 b 731 286 615 411 731 378 b 490 135 731 178 615 135 b 214 281 375 135 251 192 l 50 211 b 415 -26 115 58 260 -12 l 415 -158 l 592 -158 l 592 -19 b 921 286 764 -7 921 99 b 501 592 921 531 704 567 b 275 714 385 606 275 622 b 496 844 275 811 381 844 b 731 739 592 844 694 799 z "},"#":{"ha":1001,"x_min":0,"x_max":0,"o":"m 319 972 l 268 764 l 115 764 l 115 604 l 231 604 l 167 350 l 19 350 l 19 188 l 125 188 l 79 0 l 264 0 l 310 188 l 463 188 l 417 0 l 603 0 l 649 188 l 796 188 l 796 350 l 686 350 l 751 603 l 892 603 l 892 764 l 792 764 l 843 972 l 658 972 l 606 764 l 454 764 l 506 972 z m 581 615 l 511 340 l 336 340 l 406 615 z "},"\"":{"ha":603,"x_min":0,"x_max":0,"o":"m 89 969 l 89 597 l 243 597 l 243 969 z m 336 969 l 336 597 l 492 597 l 492 969 z "},"!":{"ha":413,"x_min":0,"x_max":0,"o":"m 103 971 l 103 254 l 285 254 l 285 971 z m 83 100 b 306 100 83 -46 306 -46 b 83 100 306 247 83 247 z "},",":{"ha":346,"x_min":0,"x_max":0,"o":"m 257 72 b 60 76 257 199 60 204 b 125 1 60 33 86 8 l 99 -136 l 194 -136 b 257 72 258 60 257 56 z "},".":{"ha":336,"x_min":0,"x_max":0,"o":"m 51 88 b 251 88 51 -44 251 -44 b 51 88 251 219 51 219 z "},":":{"ha":329,"x_min":0,"x_max":0,"o":"m 63 88 b 260 88 63 -42 260 -42 b 63 88 260 218 63 218 z m 63 490 b 260 490 63 361 260 361 b 63 490 260 621 63 621 z "},";":{"ha":361,"x_min":0,"x_max":0,"o":"m 63 490 b 260 490 63 361 260 361 b 63 490 260 621 63 621 z m 257 72 b 60 76 257 199 60 204 b 125 1 60 33 86 8 l 99 -136 l 194 -136 b 257 72 258 60 257 56 z "},"?":{"ha":861,"x_min":0,"x_max":0,"o":"m 257 104 b 479 104 257 -42 479 -42 b 257 104 479 251 257 251 z m 222 681 b 404 818 224 768 315 818 b 589 686 490 818 589 793 b 431 553 589 603 504 592 b 278 281 357 514 279 471 l 278 272 l 461 272 l 461 279 b 514 408 461 344 476 383 b 779 685 594 463 779 483 b 407 978 783 893 603 978 b 36 681 211 978 38 886 z "},"@":{"ha":1326,"x_min":0,"x_max":0,"o":"m 643 758 b 1075 349 899 758 1075 653 b 997 125 1075 244 1046 138 b 969 153 983 121 969 131 l 969 629 l 839 647 l 828 576 b 635 683 797 635 711 683 b 281 338 438 683 281 538 b 636 -4 281 136 436 -4 b 836 118 696 -4 806 33 b 976 -14 836 13 922 -14 b 1231 349 1139 -14 1231 128 b 643 897 1231 717 975 897 b 60 338 343 897 60 703 b 632 -208 60 -46 349 -208 b 897 -139 713 -208 803 -194 l 833 -18 b 636 -67 763 -61 692 -67 b 217 338 433 -67 217 36 b 643 758 217 613 433 758 z m 639 536 b 829 346 768 536 829 450 b 638 144 829 236 764 144 b 443 339 507 144 443 240 b 639 536 443 438 510 536 z "},"€":{"ha":785,"x_min":0,"x_max":0,"o":"m 710 171 b 593 150 671 157 631 150 b 297 313 438 150 344 219 l 538 313 l 565 447 l 260 447 b 258 479 258 457 258 468 b 260 521 258 493 258 507 l 588 521 l 618 657 l 301 657 b 593 817 351 747 446 817 b 685 806 624 817 654 814 l 743 969 b 593 992 694 985 644 992 b 115 657 321 992 171 847 l 17 657 l 17 521 l 93 521 b 92 479 92 507 92 493 l 92 447 l 17 447 l 17 313 l 111 313 b 593 -22 161 119 308 -22 b 761 1 649 -22 710 -14 z "},"ƒ":{"ha":613,"x_min":0,"x_max":0,"o":"m 161 -3 b 58 -125 161 -86 117 -125 b -25 -94 24 -125 11 -118 l -87 -221 b 69 -271 -32 -257 10 -271 b 331 -3 207 -271 331 -186 l 331 526 l 532 526 l 532 675 l 331 675 l 331 721 b 433 843 331 804 375 843 b 538 807 468 843 501 831 l 600 933 b 422 989 544 969 482 989 b 161 721 285 989 161 904 l 161 675 l 33 675 l 33 526 l 161 526 z "},"¡":{"ha":443,"x_min":0,"x_max":0,"o":"m 104 -322 l 104 394 l 286 394 l 286 -322 z m 306 549 b 83 549 306 694 83 694 b 306 549 83 401 306 401 z "},"¢":{"ha":760,"x_min":0,"x_max":0,"o":"m 567 192 b 414 119 529 153 464 119 b 218 325 307 119 218 208 b 414 532 218 442 307 532 b 571 471 464 532 533 508 l 669 581 b 485 678 617 632 554 664 l 485 778 l 328 778 l 328 676 b 50 325 156 636 50 490 b 328 -26 50 153 164 11 l 328 -126 l 485 -126 l 485 -29 b 671 69 557 -15 618 19 z "},"©":{"ha":1285,"x_min":0,"x_max":0,"o":"m 633 999 b 122 492 313 999 122 767 b 633 -15 122 217 313 -15 b 1135 492 956 -15 1135 217 b 633 999 1135 767 956 999 z m 656 224 b 374 489 500 224 374 317 b 656 760 374 661 499 760 b 854 674 735 760 799 729 l 765 592 b 656 638 733 622 700 638 b 503 489 574 638 503 586 b 656 347 503 399 575 347 b 767 396 703 347 735 364 l 857 311 b 656 224 800 256 738 224 z m 269 492 b 633 867 269 701 408 867 b 988 492 860 867 988 701 b 633 117 988 282 860 117 b 269 492 408 117 269 282 z "},"®":{"ha":1285,"x_min":0,"x_max":0,"o":"m 635 994 b 133 488 314 994 133 763 b 635 -19 133 213 314 -19 b 1138 488 957 -19 1138 213 b 635 994 1138 763 957 994 z m 281 488 b 635 863 282 697 410 863 b 989 488 861 863 989 697 b 635 113 989 278 861 113 b 281 488 410 113 282 278 z m 882 263 l 882 233 l 738 233 l 617 392 l 569 392 l 569 233 l 435 233 l 435 743 b 678 743 515 743 597 743 b 756 418 903 743 940 460 z m 569 622 l 569 506 l 678 506 b 678 622 757 506 757 622 z "},"¿":{"ha":832,"x_min":0,"x_max":0,"o":"m 546 608 b 325 610 547 756 325 756 b 546 608 324 463 547 463 z m 767 32 b 396 -264 765 -172 592 -265 b 24 31 199 -264 19 -179 b 289 306 24 222 208 251 b 343 435 328 331 342 369 l 342 442 l 525 440 l 525 433 b 372 161 524 243 446 200 b 214 28 299 122 214 111 b 397 -104 214 -78 311 -104 b 581 33 486 -104 578 -54 z "},"B":{"ha":949,"x_min":0,"x_max":0,"o":"m 243 421 l 524 421 b 706 288 599 421 706 375 b 524 171 706 196 599 171 l 243 171 z m 243 806 l 524 806 b 676 686 640 806 676 731 b 524 582 676 631 639 582 l 243 582 z m 524 972 b 63 972 369 972 215 972 l 63 0 b 524 0 217 0 369 0 b 888 286 725 0 888 69 b 732 503 888 347 846 468 b 858 690 822 543 858 615 b 524 972 858 886 715 972 z "},"A":{"ha":1040,"x_min":0,"x_max":0,"o":"m 840 0 l 1040 0 l 604 972 l 404 972 l -32 0 l 167 0 l 250 183 l 758 183 z m 685 354 l 324 354 l 504 768 z "},"C":{"ha":917,"x_min":0,"x_max":0,"o":"m 800 249 b 556 150 736 185 640 150 b 221 479 315 150 222 318 b 556 817 219 642 321 817 b 790 725 640 817 726 788 l 913 843 b 556 992 813 942 688 992 b 40 479 204 992 39 733 b 556 -22 42 226 194 -22 b 925 122 696 -22 825 24 z "},"D":{"ha":976,"x_min":0,"x_max":0,"o":"m 438 972 b 56 972 318 972 175 972 l 56 0 b 438 0 175 0 318 0 b 924 494 778 0 928 249 b 438 972 919 735 771 972 z m 238 799 l 438 799 b 742 496 649 799 738 647 b 438 176 746 338 658 176 l 238 176 z "},"E":{"ha":867,"x_min":0,"x_max":0,"o":"m 793 181 l 247 181 l 247 400 l 774 400 l 774 571 l 247 571 l 247 794 l 793 794 l 793 972 l 65 972 b 65 0 65 649 65 324 l 793 0 z "},"F":{"ha":825,"x_min":0,"x_max":0,"o":"m 251 0 l 251 360 l 739 360 l 739 529 l 251 529 l 251 794 l 767 794 l 767 971 l 68 971 l 68 0 z "},"G":{"ha":1013,"x_min":0,"x_max":0,"o":"m 904 851 b 543 1000 804 950 674 1000 b 29 474 200 1000 29 747 b 543 -22 29 218 178 -22 b 931 153 714 -22 835 43 l 931 563 l 514 563 l 514 399 l 763 399 l 763 226 b 543 149 686 165 619 149 b 208 474 301 149 208 314 b 543 832 208 674 335 832 b 790 735 628 832 725 797 z "},"H":{"ha":1017,"x_min":0,"x_max":0,"o":"m 913 -1 l 913 971 l 731 971 l 731 561 l 253 561 l 253 971 l 69 971 l 69 -1 l 253 -1 l 253 392 l 731 392 l 731 -1 z "},"I":{"ha":356,"x_min":0,"x_max":0,"o":"m 251 0 l 251 972 l 69 972 l 69 0 z "},"J":{"ha":988,"x_min":0,"x_max":0,"o":"m 883 972 b 407 972 724 972 565 972 l 407 801 l 700 801 l 700 415 b 456 153 700 268 622 153 b 210 404 290 153 210 238 l 29 404 b 456 -19 29 129 207 -19 b 883 415 724 -19 883 164 l 883 972 z "},"K":{"ha":910,"x_min":0,"x_max":0,"o":"m 849 972 l 621 972 l 251 561 l 251 972 l 68 972 l 68 0 l 251 0 l 251 431 l 658 0 l 885 0 l 885 11 l 417 501 l 849 967 z "},"L":{"ha":813,"x_min":0,"x_max":0,"o":"m 68 972 l 68 0 l 751 0 l 751 169 l 251 169 l 251 972 z "},"M":{"ha":1203,"x_min":0,"x_max":0,"o":"m 915 -1 l 1099 -1 l 1099 971 l 889 971 l 585 553 l 281 971 l 69 971 l 69 -1 l 253 -1 l 253 706 l 563 282 l 599 282 l 915 704 z "},"N":{"ha":990,"x_min":0,"x_max":0,"o":"m 707 369 l 231 972 l 82 972 l 82 0 l 265 0 l 265 656 l 776 -1 l 776 0 l 890 0 l 890 974 l 707 974 z "},"O":{"ha":1090,"x_min":0,"x_max":0,"o":"m 525 992 b 25 479 189 992 25 735 b 525 -22 25 224 183 -22 b 1024 481 867 -22 1021 229 b 525 992 1026 735 860 992 z m 525 825 b 843 478 754 825 846 642 b 525 146 840 318 754 146 b 206 476 296 146 210 317 b 525 825 201 640 296 825 z "},"P":{"ha":939,"x_min":0,"x_max":0,"o":"m 251 799 l 526 799 b 526 454 760 799 761 454 l 251 454 z m 526 974 b 68 972 374 974 221 972 l 68 0 l 251 0 l 251 286 l 526 286 b 526 974 1003 286 1001 974 z "},"Q":{"ha":1086,"x_min":0,"x_max":0,"o":"m 522 996 b 22 488 181 996 21 742 b 522 -17 24 235 176 -17 b 799 56 632 -17 725 8 l 917 -61 l 1046 68 l 931 182 b 1021 499 993 272 1022 388 b 522 996 1017 749 864 996 z m 522 831 b 840 504 751 831 833 661 b 522 153 847 338 742 153 b 203 483 311 153 206 324 b 522 831 200 647 293 831 z "},"R":{"ha":938,"x_min":0,"x_max":0,"o":"m 931 13 l 636 344 b 882 650 821 382 882 517 b 532 972 882 818 761 971 b 69 974 378 972 224 974 l 69 0 l 253 0 l 253 325 l 429 325 l 713 0 l 931 0 z m 532 801 b 699 646 647 801 699 724 b 532 490 699 568 649 490 l 253 490 l 253 801 z "},"S":{"ha":918,"x_min":0,"x_max":0,"o":"m 814 813 b 432 1006 740 963 583 1006 b 56 722 253 1004 56 922 b 438 428 56 504 239 451 b 663 285 567 414 663 376 b 439 139 663 179 554 139 b 165 293 321 139 208 186 l 13 214 b 436 -25 85 36 238 -25 b 844 285 653 -25 844 68 b 453 594 844 517 656 569 b 236 717 336 608 236 632 b 438 846 236 789 301 846 b 668 738 543 846 635 793 z "},"T":{"ha":854,"x_min":0,"x_max":0,"o":"m 319 0 l 503 0 l 503 806 l 811 806 l 811 972 b 11 972 529 972 292 972 l 11 806 l 319 806 z "},"U":{"ha":1032,"x_min":0,"x_max":0,"o":"m 739 971 l 739 414 b 501 146 739 247 653 146 b 250 414 350 146 250 239 l 250 971 l 68 971 l 68 414 b 500 -21 68 121 267 -21 b 921 414 744 -21 921 126 l 921 971 z "},"V":{"ha":1044,"x_min":0,"x_max":0,"o":"m 1000 972 l 794 972 l 500 215 l 207 972 l 1 972 l 406 -4 l 596 -4 z "},"W":{"ha":1513,"x_min":0,"x_max":0,"o":"m 1468 972 l 1263 972 l 1040 271 l 797 972 l 678 972 l 442 271 l 213 972 l 7 972 l 364 0 l 519 0 l 638 303 l 739 613 l 842 306 l 963 0 l 1118 0 z "},"X":{"ha":979,"x_min":0,"x_max":0,"o":"m 485 610 l 242 972 l 40 972 l 40 964 l 368 492 l 31 6 l 31 0 l 236 0 l 485 365 l 733 0 l 939 0 l 939 6 l 600 492 l 929 964 l 929 972 l 728 972 z "},"Y":{"ha":969,"x_min":0,"x_max":0,"o":"m 231 972 l 13 972 l 13 964 l 386 401 l 386 0 l 569 0 l 569 401 l 957 964 l 957 972 l 736 972 l 478 571 z "},"Z":{"ha":814,"x_min":0,"x_max":0,"o":"m 24 800 l 504 800 l 11 106 l 11 0 l 771 0 l 771 174 l 267 174 l 771 886 l 771 972 l 24 972 z "},"a":{"ha":849,"x_min":0,"x_max":0,"o":"m 593 590 b 375 701 554 658 467 701 b 18 343 175 703 18 579 b 371 -21 18 103 168 -22 b 593 100 447 -19 554 19 l 601 0 l 761 0 l 761 685 l 599 685 z m 390 550 b 390 135 657 550 657 135 b 188 343 278 135 188 213 b 390 550 188 474 278 550 z "},"b":{"ha":868,"x_min":0,"x_max":0,"o":"m 435 543 b 629 343 543 543 629 467 b 435 142 629 224 543 142 b 236 343 328 142 236 219 b 435 543 236 463 328 543 z m 56 971 l 56 0 l 214 0 l 225 94 b 446 -15 278 13 363 -15 b 799 343 647 -15 799 118 b 450 701 799 579 650 701 b 225 592 378 701 265 663 l 225 971 z "},"c":{"ha":663,"x_min":0,"x_max":0,"o":"m 529 199 b 379 142 488 157 433 142 b 185 342 274 142 185 211 b 382 544 185 461 268 544 b 519 490 429 544 479 526 l 626 603 b 379 704 551 676 476 704 b 15 342 181 704 15 585 b 379 -21 15 99 181 -21 b 643 88 481 -21 564 10 z "},"d":{"ha":858,"x_min":0,"x_max":0,"o":"m 388 543 b 586 343 494 543 586 463 b 388 142 586 219 494 142 b 193 343 279 142 193 224 b 388 543 193 467 279 543 z m 597 971 l 597 592 b 372 701 557 663 444 701 b 24 343 172 701 24 579 b 376 -15 24 118 175 -15 b 597 94 460 -15 544 13 l 608 0 l 767 0 l 767 971 z "},"e":{"ha":810,"x_min":0,"x_max":0,"o":"m 735 282 b 389 706 761 564 618 706 b 25 347 167 706 25 556 b 401 -18 25 128 165 -18 b 696 93 506 -18 624 18 l 588 200 b 404 136 549 160 467 136 b 200 282 285 136 211 197 z m 203 422 b 394 556 228 511 303 556 b 572 422 492 556 561 511 z "},"f":{"ha":560,"x_min":0,"x_max":0,"o":"m 281 0 l 281 526 l 482 526 l 482 675 l 281 675 l 281 721 b 383 843 281 804 325 843 b 488 807 418 843 451 831 l 550 933 b 372 989 494 969 432 989 b 111 721 235 989 111 904 l 111 675 l -17 675 l -17 526 l 111 526 l 111 0 z "},"g":{"ha":767,"x_min":0,"x_max":0,"o":"m 525 668 b 368 707 478 700 422 707 b 21 360 176 707 21 574 b 368 15 21 146 154 15 b 542 -122 453 15 542 -28 b 368 -269 542 -217 465 -269 b 189 -122 271 -269 189 -211 l 21 -122 b 368 -428 21 -307 169 -428 b 711 -122 567 -428 711 -311 b 569 104 711 -35 683 47 b 714 360 682 156 714 275 b 642 563 714 435 694 503 l 718 660 l 593 754 z m 368 553 b 546 360 465 553 546 478 b 368 169 546 242 465 169 b 189 360 269 169 189 240 b 368 553 189 479 269 553 z "},"h":{"ha":807,"x_min":0,"x_max":0,"o":"m 56 972 l 56 0 l 225 0 l 225 350 b 394 538 225 453 294 538 b 550 360 485 538 550 485 l 550 0 l 719 0 l 719 361 b 439 694 719 563 633 694 b 225 592 361 694 286 671 l 225 972 z "},"i":{"ha":322,"x_min":0,"x_max":0,"o":"m 225 688 l 225 0 l 56 0 l 56 688 z m 40 878 b 240 878 40 746 240 746 b 40 878 240 1010 40 1010 z "},"j":{"ha":311,"x_min":0,"x_max":0,"o":"m 222 688 l 222 -146 b -6 -425 222 -315 149 -425 b -157 -379 -56 -425 -108 -411 l -96 -247 b -14 -267 -67 -261 -39 -268 b 54 -146 42 -264 54 -221 l 54 688 z m 39 879 b 239 879 39 747 239 747 b 39 879 239 1011 39 1011 z "},"k":{"ha":715,"x_min":0,"x_max":0,"o":"m 51 971 l 51 0 l 221 0 l 221 310 l 489 0 l 693 0 l 693 13 l 375 363 l 654 675 l 654 685 l 451 685 l 221 410 l 221 971 z "},"l":{"ha":317,"x_min":0,"x_max":0,"o":"m 56 971 l 56 0 l 224 0 l 224 971 z "},"m":{"ha":1244,"x_min":0,"x_max":0,"o":"m 681 0 l 681 367 b 829 536 681 457 738 536 b 958 369 921 536 958 460 l 958 0 l 1128 0 l 1128 369 b 838 694 1128 575 1032 694 b 608 569 749 694 669 667 b 406 697 569 664 488 697 b 225 603 340 697 261 672 l 213 686 l 56 686 l 56 0 l 225 0 l 225 367 b 371 539 225 457 279 539 b 511 367 464 539 511 457 l 511 0 z "},"n":{"ha":819,"x_min":0,"x_max":0,"o":"m 729 0 l 729 360 b 439 696 729 575 600 696 b 214 593 353 696 283 661 l 203 686 l 51 686 l 51 0 l 219 0 l 219 350 b 394 542 219 454 290 542 b 560 358 503 542 560 463 l 560 0 z "},"o":{"ha":797,"x_min":0,"x_max":0,"o":"m 378 699 b 24 342 160 699 24 538 b 379 -15 24 144 157 -15 b 736 342 601 -15 736 144 b 378 699 736 538 596 699 z m 379 544 b 565 342 493 544 565 444 b 379 140 565 238 503 140 b 193 342 256 140 193 238 b 379 544 193 444 257 544 z "},"p":{"ha":868,"x_min":0,"x_max":0,"o":"m 435 147 b 240 342 319 147 240 235 b 435 536 240 449 313 536 b 629 342 557 536 629 449 b 435 147 629 235 550 147 z m 225 -286 l 225 81 b 453 -17 274 6 381 -17 b 799 342 672 -17 799 142 b 447 700 799 543 658 700 b 225 590 369 700 278 667 l 214 685 l 56 685 l 56 -286 z "},"q":{"ha":858,"x_min":0,"x_max":0,"o":"m 386 147 b 192 342 271 147 192 235 b 386 536 192 449 264 536 b 581 342 508 536 581 449 b 386 147 581 235 501 147 z m 765 -286 l 765 685 l 607 685 l 596 590 b 374 700 543 667 451 700 b 22 342 163 700 22 543 b 368 -17 22 142 149 -17 b 596 81 440 -17 547 6 l 596 -286 z "},"r":{"ha":603,"x_min":0,"x_max":0,"o":"m 56 685 l 56 0 l 225 0 l 225 361 b 396 535 225 488 307 535 b 518 490 451 535 483 519 l 594 638 b 418 703 557 675 489 703 b 225 606 349 703 278 690 l 213 685 z "},"s":{"ha":682,"x_min":0,"x_max":0,"o":"m 597 614 b 331 704 518 683 438 704 b 42 490 206 704 42 649 b 325 278 42 335 196 288 b 461 206 422 272 461 253 b 338 124 461 156 401 122 b 101 219 261 125 150 165 l 18 99 b 335 -24 118 -6 226 -24 b 629 201 531 -24 629 81 b 336 421 629 383 465 413 b 208 496 249 426 208 451 b 333 564 208 539 253 564 b 503 503 399 564 454 549 z "},"t":{"ha":554,"x_min":0,"x_max":0,"o":"m 125 860 l 125 683 l -3 683 l -3 538 l 125 538 l 125 242 b 371 -8 125 71 222 -14 b 511 21 422 -7 463 1 l 464 165 b 382 144 439 153 408 144 b 293 242 329 144 293 176 l 293 538 l 483 538 l 483 683 l 294 683 l 294 878 z "},"u":{"ha":832,"x_min":0,"x_max":0,"o":"m 60 685 l 60 325 b 343 -11 60 113 179 -11 b 575 92 439 -11 504 22 l 586 -1 l 738 -1 l 738 685 l 569 685 l 569 335 b 394 143 569 231 499 143 b 229 326 286 143 229 222 l 229 685 z "},"v":{"ha":792,"x_min":0,"x_max":0,"o":"m 581 686 l 486 457 l 382 171 l 276 460 l 182 686 l -3 686 l 290 -3 l 474 -3 l 765 686 z "},"w":{"ha":1267,"x_min":0,"x_max":0,"o":"m 536 686 l 388 171 l 231 686 l 42 686 l 282 -3 l 479 -3 l 550 200 l 611 429 l 672 200 l 743 -3 l 940 -3 l 1179 686 l 992 686 l 835 171 l 685 686 z "},"x":{"ha":739,"x_min":0,"x_max":0,"o":"m 357 453 l 222 685 l 19 685 l 19 679 l 244 347 l 6 4 l 6 0 l 208 0 l 357 229 l 506 0 l 708 0 l 708 4 l 469 347 l 694 679 l 694 685 l 492 685 z "},"y":{"ha":779,"x_min":0,"x_max":0,"o":"m 558 685 l 433 385 l 363 196 l 297 389 l 193 685 l -4 685 l 269 11 l 142 -286 l 328 -286 l 746 685 z "},"z":{"ha":635,"x_min":0,"x_max":0,"o":"m 38 685 l 38 531 l 340 531 l 13 71 l 13 0 l 589 0 l 589 167 l 271 167 l 586 604 l 586 685 z "},"˘":{"ha":513,"x_min":0,"x_max":0,"o":"m 321 971 b 174 971 321 867 174 868 l 36 971 b 457 971 14 700 479 696 z "},"˙":{"ha":275,"x_min":0,"x_max":0,"o":"m 15 889 b 215 889 15 757 215 757 b 15 889 215 1021 15 1021 z "},"˚":{"ha":436,"x_min":0,"x_max":0,"o":"m 21 824 b 206 657 21 713 114 657 b 389 824 296 657 389 713 b 206 992 389 935 296 992 b 21 824 114 992 21 935 z m 203 896 b 203 754 307 896 313 754 b 203 896 97 754 96 896 z "},"˝":{"ha":604,"x_min":0,"x_max":0,"o":"m 569 974 l 390 974 l 267 778 l 406 778 l 569 968 z m 318 975 l 139 975 l 17 779 l 158 779 l 318 969 z "},"˛":{"ha":524,"x_min":0,"x_max":0,"o":"m 340 -200 b 193 -194 276 -254 204 -231 b 349 -110 169 -118 297 -96 l 328 -37 b 67 -232 72 3 47 -165 b 426 -265 107 -371 346 -396 z "},"ˇ":{"ha":563,"x_min":0,"x_max":0,"o":"m 228 772 l 321 772 l 532 964 l 532 972 l 365 972 l 276 888 l 194 972 l 22 972 l 22 964 z "},"ı":{"ha":331,"x_min":0,"x_max":0,"o":"m 233 0 l 233 661 l 56 661 l 56 0 z "},"⁄":{"ha":228,"x_min":0,"x_max":0,"o":"m -232 -92 l -75 -92 l 415 1013 l 258 1013 z "},"ﬁ":{"ha":789,"x_min":0,"x_max":0,"o":"m 292 685 l 292 721 b 603 801 292 853 453 893 l 665 928 b 122 721 426 1068 122 979 l 122 685 l -6 685 l -6 540 l 122 540 l 122 0 l 292 0 l 292 540 l 482 540 l 482 0 l 651 0 l 651 685 z "},"ﬂ":{"ha":792,"x_min":0,"x_max":0,"o":"m 281 0 l 281 526 l 426 526 l 426 675 l 281 675 l 281 721 b 383 854 281 804 325 854 b 485 829 417 854 443 851 l 485 0 l 653 0 l 653 910 b 372 989 506 996 399 989 b 111 721 235 989 111 904 l 111 675 l -8 675 l -8 526 l 111 526 l 111 0 z "},"Ł":{"ha":824,"x_min":0,"x_max":0,"o":"m 272 574 l 272 972 l 89 972 l 89 483 l -19 431 l -19 293 l 89 346 l 89 0 l 772 0 l 772 169 l 272 169 l 272 435 l 419 506 l 419 646 z "},"ł":{"ha":317,"x_min":0,"x_max":0,"o":"m 322 613 l 224 564 l 224 971 l 56 971 l 56 483 l -33 440 l -33 314 l 56 357 l 56 0 l 224 0 l 224 439 l 322 488 z "},"Ž":{"ha":788,"x_min":0,"x_max":0,"o":"m 3 800 l 483 800 l -10 106 l -10 0 l 750 0 l 750 174 l 246 174 l 750 886 l 750 972 l 3 972 z m 351 1061 l 444 1061 l 656 1253 l 656 1261 l 489 1261 l 400 1176 l 318 1261 l 146 1261 l 146 1253 z "},"ž":{"ha":653,"x_min":0,"x_max":0,"o":"m 38 685 l 38 531 l 340 531 l 13 71 l 13 0 l 589 0 l 589 167 l 271 167 l 586 604 l 586 685 z m 272 769 l 365 769 l 576 961 l 576 969 l 410 969 l 321 885 l 239 969 l 67 969 l 67 961 z "},"(":{"ha":481,"x_min":0,"x_max":0,"o":"m 367 1076 b 40 457 150 931 40 689 b 360 -168 40 222 143 -25 l 451 -44 b 215 457 294 79 215 246 b 451 963 215 654 294 838 z "},")":{"ha":493,"x_min":0,"x_max":0,"o":"m 17 963 b 253 457 174 838 253 654 b 19 -42 253 246 176 82 l 108 -168 b 428 457 325 -25 428 222 b 101 1076 428 689 318 931 z "},"*":{"ha":476,"x_min":0,"x_max":0,"o":"m 407 649 l 310 757 l 443 783 l 407 913 l 271 861 l 285 994 l 153 994 l 160 864 l 32 913 l -7 783 l 124 757 l 32 649 l 138 571 l 219 692 l 303 571 z "},"+":{"ha":650,"x_min":0,"x_max":0,"o":"m 21 560 l 21 406 l 225 406 l 225 197 l 393 197 l 393 406 l 600 406 l 600 560 l 393 560 l 393 767 l 225 767 l 225 560 z "},"-":{"ha":636,"x_min":0,"x_max":0,"o":"m 49 375 l 561 375 l 561 531 l 49 531 z "},"<":{"ha":538,"x_min":0,"x_max":0,"o":"m 236 436 l 456 647 l 456 656 l 346 764 l 26 447 l 26 426 l 346 110 l 456 218 l 456 226 z "},"=":{"ha":593,"x_min":0,"x_max":0,"o":"m 28 229 l 535 229 l 535 382 l 28 382 z m 28 471 l 535 471 l 535 625 l 28 625 z "},">":{"ha":551,"x_min":0,"x_max":0,"o":"m 54 226 l 54 218 l 164 110 l 483 426 l 483 447 l 164 764 l 54 656 l 54 647 l 274 436 z "},"[":{"ha":433,"x_min":0,"x_max":0,"o":"m 403 -149 l 403 4 l 239 4 l 239 935 l 403 935 l 403 1085 l 68 1085 l 68 -149 z "},"\\":{"ha":635,"x_min":0,"x_max":0,"o":"m -7 1064 l 457 -114 l 633 -114 l 171 1064 z "},"]":{"ha":449,"x_min":0,"x_max":0,"o":"m 346 -149 l 346 1085 l 11 1085 l 11 935 l 175 935 l 175 4 l 11 4 l 11 -149 z "},"^":{"ha":821,"x_min":0,"x_max":0,"o":"m 1 463 l 176 463 l 386 782 l 594 463 l 781 463 l 781 472 l 439 975 l 332 975 l 1 471 z "},"_":{"ha":668,"x_min":0,"x_max":0,"o":"m -15 -153 l 640 -153 l 640 -4 l -15 -4 z "},"`":{"ha":329,"x_min":0,"x_max":0,"o":"m -10 964 l 143 774 l 293 774 l 293 782 l 190 971 l -10 971 z "},"{":{"ha":469,"x_min":0,"x_max":0,"o":"m 431 -10 b 307 96 328 -21 307 -1 l 307 282 b 210 461 307 364 314 432 b 307 642 314 492 307 558 l 307 828 b 431 933 307 925 340 957 l 431 1065 b 129 836 225 1103 129 1013 l 129 642 b 32 525 129 589 119 525 l 32 399 b 129 282 119 399 129 335 l 129 88 b 431 -142 129 -89 225 -179 z "},"|":{"ha":425,"x_min":0,"x_max":0,"o":"m 267 1044 l 103 1044 l 103 -117 l 267 -117 z "},"}":{"ha":472,"x_min":0,"x_max":0,"o":"m -3 -142 b 299 88 203 -179 299 -89 l 299 282 b 396 399 299 335 308 399 l 396 525 b 299 642 308 525 299 589 l 299 836 b -3 1065 299 1013 203 1103 l -3 933 b 121 828 88 957 121 925 l 121 642 b 218 461 121 558 114 492 b 121 282 114 432 121 364 l 121 96 b -3 -10 121 -1 100 -21 z "},"~":{"ha":719,"x_min":0,"x_max":0,"o":"m 560 518 b 454 438 535 456 504 422 b 211 542 375 463 315 542 b -6 365 124 542 32 497 l 108 322 b 206 401 133 381 171 401 b 413 304 271 401 343 328 b 683 476 551 256 643 353 z "},"„":{"ha":560,"x_min":0,"x_max":0,"o":"m 232 72 b 35 76 232 199 35 204 b 100 1 35 33 61 8 l 74 -136 l 169 -136 b 232 72 233 60 232 56 z m 494 72 b 297 76 494 199 297 204 b 363 1 297 33 324 8 l 336 -136 l 432 -136 b 494 72 496 60 494 56 z "},"‚":{"ha":347,"x_min":0,"x_max":0,"o":"m 232 72 b 35 76 232 199 35 204 b 100 1 35 33 61 8 l 74 -136 l 169 -136 b 232 72 233 60 232 56 z "},"‰":{"ha":1610,"x_min":0,"x_max":0,"o":"m 265 990 b 265 554 -36 990 -36 554 b 265 990 567 554 567 990 z m 747 974 l 107 -1 l 304 -1 l 943 974 z m 793 426 b 793 -10 492 426 492 -10 b 793 426 1094 -10 1094 426 z m 793 299 b 793 117 913 299 913 117 b 793 299 674 117 674 299 z m 265 864 b 265 682 385 864 385 682 b 265 864 146 682 146 864 z m 1310 426 b 1310 -10 1008 426 1008 -10 b 1310 426 1611 -10 1611 426 z m 1310 299 b 1310 117 1429 299 1429 117 b 1310 299 1190 117 1190 299 z "},"†":{"ha":824,"x_min":0,"x_max":0,"o":"m 488 971 l 301 971 l 301 711 l 31 711 l 31 558 l 301 558 l 301 -161 l 488 -161 l 488 558 l 758 558 l 758 711 l 488 711 z "},"‡":{"ha":906,"x_min":0,"x_max":0,"o":"m 518 971 l 335 971 l 335 714 l 63 714 l 63 561 l 335 561 l 335 254 l 63 254 l 63 103 l 335 103 l 335 -174 l 518 -174 l 518 103 l 790 103 l 790 254 l 518 254 l 518 561 l 790 561 l 790 714 l 518 714 z "},"ˆ":{"ha":590,"x_min":0,"x_max":0,"o":"m 31 801 l 31 793 l 203 793 l 282 875 l 363 793 l 535 793 l 535 801 l 329 993 l 236 993 z "},"Š":{"ha":918,"x_min":0,"x_max":0,"o":"m 814 813 b 432 1006 740 963 583 1006 b 56 722 253 1004 56 922 b 438 428 56 504 239 451 b 663 285 567 414 663 376 b 439 139 663 179 554 139 b 165 293 321 139 208 186 l 13 214 b 436 -25 85 36 238 -25 b 844 285 653 -25 844 68 b 453 594 844 517 656 569 b 236 717 336 608 236 632 b 438 846 236 789 301 846 b 668 738 543 846 635 793 z m 400 1075 l 493 1075 l 704 1267 l 704 1275 l 538 1275 l 449 1190 l 367 1275 l 194 1275 l 194 1267 z "},"‹":{"ha":450,"x_min":0,"x_max":0,"o":"m 17 442 l 210 133 l 390 133 l 199 442 l 390 749 l 210 749 z "},"Œ":{"ha":1436,"x_min":0,"x_max":0,"o":"m 1353 183 l 888 183 l 888 400 l 1333 400 l 1333 574 l 888 574 l 888 790 l 1353 790 l 1353 972 l 718 972 l 718 969 b 558 992 669 983 617 992 b 63 492 228 992 63 779 b 558 -21 63 204 222 -21 b 718 1 617 -21 669 -12 l 1353 1 z m 560 838 b 718 807 621 838 674 828 l 718 163 b 564 135 675 143 624 135 b 246 488 350 135 246 311 b 560 838 246 682 347 838 z "},"‘":{"ha":296,"x_min":0,"x_max":0,"o":"m 261 974 l 128 974 l 19 661 l 194 661 z "},"’":{"ha":281,"x_min":0,"x_max":0,"o":"m -3 660 l 131 660 l 239 972 l 64 972 z "},"“":{"ha":525,"x_min":0,"x_max":0,"o":"m 485 971 l 351 971 l 243 658 l 418 658 z m 250 971 l 117 971 l 8 658 l 183 658 z "},"”":{"ha":503,"x_min":0,"x_max":0,"o":"m -3 660 l 131 660 l 239 972 l 64 972 z m 232 660 l 365 660 l 474 972 l 299 972 z "},"•":{"ha":494,"x_min":0,"x_max":0,"o":"m 229 275 b 407 450 329 275 407 344 b 229 626 407 556 329 626 b 49 450 126 626 49 556 b 229 275 49 344 126 275 z "},"–":{"ha":757,"x_min":0,"x_max":0,"o":"m 29 335 l 686 335 l 686 485 l 29 485 z "},"—":{"ha":865,"x_min":0,"x_max":0,"o":"m 19 335 l 810 335 l 810 485 l 19 485 z "},"˜":{"ha":551,"x_min":0,"x_max":0,"o":"m 144 893 b 326 893 199 994 258 913 b 501 1015 392 876 461 908 l 390 1068 b 218 1069 347 982 283 1054 b 39 950 126 1090 72 1032 z "},"™":{"ha":1025,"x_min":0,"x_max":0,"o":"m 282 863 l 415 863 l 415 974 l 18 974 l 18 863 l 150 863 l 150 568 l 282 568 z m 599 975 l 460 975 l 460 568 l 594 568 l 594 689 l 585 807 l 693 658 l 721 658 l 832 807 l 822 689 l 822 568 l 957 568 l 957 975 l 818 975 l 708 840 z "},"š":{"ha":682,"x_min":0,"x_max":0,"o":"m 597 614 b 331 704 518 683 438 704 b 42 490 206 704 42 649 b 325 278 42 335 196 288 b 461 206 422 272 461 253 b 338 124 461 156 401 122 b 101 219 261 125 150 165 l 18 99 b 335 -24 118 -6 226 -24 b 629 201 531 -24 629 81 b 336 421 629 383 465 413 b 208 496 249 426 208 451 b 333 564 208 539 253 564 b 503 503 399 564 454 549 z m 286 772 l 379 772 l 590 964 l 590 972 l 424 972 l 335 888 l 253 972 l 81 972 l 81 964 z "},"›":{"ha":486,"x_min":0,"x_max":0,"o":"m 211 749 l 31 749 l 222 442 l 31 133 l 211 133 l 404 442 z "},"¤":{"ha":751,"x_min":0,"x_max":0,"o":"m 226 178 b 499 178 311 144 411 140 l 581 97 l 706 222 l 626 301 b 625 575 669 386 668 486 l 706 656 l 579 783 l 496 700 b 226 701 414 736 311 738 l 146 783 l 18 656 l 104 574 b 99 301 58 488 53 393 l 18 222 l 146 96 z m 361 289 b 214 439 271 289 214 363 b 361 589 214 515 271 589 b 507 439 456 589 507 515 b 361 289 507 363 456 289 z "},"¥":{"ha":999,"x_min":0,"x_max":0,"o":"m 171 163 l 386 163 l 386 0 l 569 0 l 569 163 l 783 163 l 783 294 l 569 294 l 569 365 l 783 365 l 783 500 l 638 500 l 957 964 l 957 972 l 736 972 l 478 571 l 231 972 l 13 972 l 13 964 l 321 500 l 171 500 l 171 365 l 386 365 l 386 294 l 171 294 z "},"¦":{"ha":424,"x_min":0,"x_max":0,"o":"m 285 474 l 285 986 l 111 986 l 111 474 z m 111 386 l 111 -126 l 285 -126 l 285 386 z "},"§":{"ha":836,"x_min":0,"x_max":0,"o":"m 54 108 b 400 -15 132 15 264 -15 b 764 201 528 -15 756 26 b 646 350 767 250 731 325 b 765 486 713 369 760 432 b 418 700 781 669 575 700 b 251 769 347 700 249 717 b 431 833 254 819 342 833 b 624 776 510 833 572 825 l 744 879 b 438 983 672 963 538 983 b 71 765 296 983 81 943 b 185 617 68 711 97 635 b 61 478 104 592 64 526 b 411 264 53 318 244 261 b 583 203 513 265 586 242 b 406 136 581 158 496 136 b 164 224 313 135 232 150 z m 589 482 b 238 483 583 381 231 375 b 589 482 243 597 596 597 z "},"ª":{"ha":576,"x_min":0,"x_max":0,"o":"m 382 911 b 239 983 356 956 299 983 b 4 749 107 985 4 904 b 236 510 4 592 103 510 b 382 589 286 511 356 536 l 386 524 l 511 524 l 511 972 l 385 972 z m 251 865 b 251 632 401 865 401 632 b 138 749 189 632 138 675 b 251 865 138 822 189 865 z m 21 324 l 514 324 l 514 444 l 21 444 z "},"¨":{"ha":710,"x_min":0,"x_max":0,"o":"m 68 910 b 263 910 68 782 263 782 b 68 910 263 1039 68 1039 z m 414 910 b 608 910 414 782 608 782 b 414 910 608 1039 414 1039 z "},"«":{"ha":685,"x_min":0,"x_max":0,"o":"m 17 442 l 210 133 l 390 133 l 199 442 l 390 749 l 210 749 z m 261 442 l 454 133 l 635 133 l 443 442 l 635 749 l 454 749 z "},"¬":{"ha":650,"x_min":0,"x_max":0,"o":"m 569 531 l 21 531 l 21 386 l 424 386 l 424 210 l 569 210 z "},"−":{"ha":640,"x_min":0,"x_max":0,"o":"m 31 328 l 574 328 l 574 485 l 31 485 z "},"°":{"ha":422,"x_min":0,"x_max":0,"o":"m 10 826 b 196 650 10 708 103 650 b 383 826 289 650 383 708 b 197 1003 383 943 290 1003 b 10 826 104 1003 10 943 z m 197 903 b 196 749 303 903 304 749 b 197 903 88 749 89 903 z "},"±":{"ha":651,"x_min":0,"x_max":0,"o":"m 28 444 l 226 444 l 226 239 l 396 239 l 396 444 l 596 444 l 596 603 l 396 603 l 396 808 l 226 808 l 226 603 l 28 603 z m 28 26 l 596 26 l 596 181 l 28 181 z "},"²":{"ha":510,"x_min":0,"x_max":0,"o":"m 168 913 b 246 964 169 947 206 964 b 332 906 296 964 332 949 b 43 683 332 797 43 888 b 43 550 43 639 43 594 l 446 550 l 446 665 l 171 665 l 171 683 b 456 906 171 790 456 696 b 243 1071 456 1022 367 1071 b 46 913 149 1071 47 1021 z "},"³":{"ha":543,"x_min":0,"x_max":0,"o":"m 243 765 b 331 703 311 765 331 735 b 242 650 331 665 285 650 b 156 699 201 650 167 663 l 28 699 b 238 539 29 583 140 539 b 460 706 336 539 460 581 b 381 811 460 749 431 796 b 447 913 425 825 447 872 b 240 1071 446 1021 338 1071 b 38 917 146 1071 38 1026 l 146 917 b 239 967 157 960 194 967 b 324 913 310 967 324 928 b 238 858 322 865 290 858 l 164 858 l 164 765 l 243 765 z "},"´":{"ha":332,"x_min":0,"x_max":0,"o":"m 297 971 l 97 971 l -6 782 l -6 774 l 144 774 l 297 964 z "},"µ":{"ha":815,"x_min":0,"x_max":0,"o":"m 731 0 l 731 661 l 549 661 l 549 315 b 390 126 549 185 471 126 b 226 299 308 126 226 188 l 226 661 l 47 661 l 47 -300 l 222 -300 l 222 68 b 385 -31 260 -22 331 -31 b 549 71 438 -31 515 1 l 565 0 z "},"¶":{"ha":1161,"x_min":0,"x_max":0,"o":"m 529 800 l 786 800 l 786 -296 l 969 -296 l 969 800 l 1099 800 l 1099 972 l 394 972 b 15 606 143 972 15 789 b 346 242 15 436 126 264 l 346 -296 l 529 -296 z "},"·":{"ha":314,"x_min":0,"x_max":0,"o":"m 24 460 b 235 460 24 321 235 321 b 24 460 235 599 24 599 z "},"¸":{"ha":531,"x_min":0,"x_max":0,"o":"m 46 -235 b 414 -197 131 -372 379 -358 b 271 -37 426 -128 399 -42 l 293 33 l 171 33 l 126 -97 l 167 -129 b 285 -178 219 -92 300 -125 b 119 -172 268 -233 160 -226 z "},"¹":{"ha":394,"x_min":0,"x_max":0,"o":"m 74 550 l 325 550 l 325 658 l 265 658 l 265 1061 l 79 1061 l 79 957 l 143 957 l 143 658 l 74 658 z "},"º":{"ha":519,"x_min":0,"x_max":0,"o":"m 140 842 b 353 842 140 989 353 986 l 353 765 b 140 765 353 618 140 618 z m 21 768 b 475 768 21 464 475 464 l 475 843 b 21 843 475 1147 21 1147 z "},"»":{"ha":639,"x_min":0,"x_max":0,"o":"m 421 749 l 240 749 l 432 442 l 240 133 l 421 133 l 614 442 z m 176 749 l -4 749 l 188 442 l -4 133 l 176 133 l 369 442 z "},"Á":{"ha":1040,"x_min":0,"x_max":0,"o":"m 758 183 l 250 183 l 167 0 l -32 0 l 404 972 l 604 972 l 1040 0 l 840 0 z m 685 354 l 504 768 l 324 354 l 685 354 z m 731 1269 l 531 1269 l 428 1081 l 428 1072 l 578 1072 l 731 1263 z "},"Â":{"ha":1040,"x_min":0,"x_max":0,"o":"m 840 0 l 1040 0 l 604 972 l 404 972 l -32 0 l 167 0 l 250 183 l 758 183 z m 685 354 l 324 354 l 504 768 z m 257 1054 l 257 1046 l 429 1046 l 508 1128 l 589 1046 l 761 1046 l 761 1054 l 556 1246 l 463 1246 z "},"Ã":{"ha":1040,"x_min":0,"x_max":0,"o":"m 840 0 l 1040 0 l 604 972 l 404 972 l -32 0 l 167 0 l 250 183 l 758 183 z m 685 354 l 324 354 l 504 768 z m 360 1060 b 547 1060 415 1164 476 1079 b 726 1185 614 1042 685 1075 l 613 1239 b 436 1240 568 1150 503 1225 b 253 1118 342 1261 286 1201 z "},"Å":{"ha":1040,"x_min":0,"x_max":0,"o":"m 319 1108 b 401 967 319 1040 353 993 l -32 0 l 167 0 l 250 183 l 758 183 l 840 0 l 1040 0 l 606 967 b 688 1108 653 993 688 1040 b 504 1276 688 1219 594 1276 b 319 1108 413 1276 319 1219 z m 324 354 l 504 768 l 685 354 z m 501 1181 b 501 1039 606 1181 611 1039 b 501 1181 396 1039 394 1181 z "},"È":{"ha":860,"x_min":0,"x_max":0,"o":"m 793 181 l 247 181 l 247 400 l 774 400 l 774 571 l 247 571 l 247 794 l 793 794 l 793 972 l 65 972 b 65 0 65 649 65 324 l 793 0 z m 233 1269 l 386 1079 l 536 1079 l 536 1088 l 433 1276 l 233 1276 z "},"É":{"ha":860,"x_min":0,"x_max":0,"o":"m 793 0 l 65 0 b 65 972 65 324 65 649 l 793 972 l 793 794 l 247 794 l 247 571 l 774 571 l 774 400 l 247 400 l 247 181 l 793 181 z m 658 1268 l 458 1268 l 356 1079 l 356 1071 l 506 1071 l 658 1261 z "},"Ê":{"ha":860,"x_min":0,"x_max":0,"o":"m 793 181 l 247 181 l 247 400 l 774 400 l 774 571 l 247 571 l 247 794 l 793 794 l 793 972 l 65 972 b 65 0 65 649 65 324 l 793 0 z m 211 1079 l 211 1071 l 383 1071 l 463 1153 l 543 1071 l 715 1071 l 715 1079 l 510 1271 l 417 1271 z "},"Ñ":{"ha":1028,"x_min":0,"x_max":0,"o":"m 707 369 l 231 972 l 82 972 l 82 0 l 265 0 l 265 656 l 776 -1 l 776 0 l 890 0 l 890 974 l 707 974 z m 374 1069 b 556 1069 428 1171 488 1089 b 731 1192 621 1053 690 1085 l 619 1244 b 447 1246 576 1158 513 1231 b 268 1126 356 1267 301 1208 z "},"Ò":{"ha":1090,"x_min":0,"x_max":0,"o":"m 525 992 b 25 479 189 992 25 735 b 525 -22 25 224 183 -22 b 1024 481 867 -22 1021 229 b 525 992 1026 735 860 992 z m 525 825 b 843 478 754 825 846 642 b 525 146 840 318 754 146 b 206 476 296 146 210 317 b 525 825 201 640 296 825 z m 322 1274 l 475 1083 l 625 1083 l 625 1092 l 522 1281 l 322 1281 z "},"Ó":{"ha":1090,"x_min":0,"x_max":0,"o":"m 525 992 b 1024 481 860 992 1026 735 b 525 -22 1021 229 867 -22 b 25 479 183 -22 25 224 b 525 992 25 735 189 992 z m 525 825 b 206 476 296 825 201 640 b 525 146 210 317 296 146 b 843 478 754 146 840 318 b 525 825 846 642 754 825 z m 749 1274 l 549 1274 l 446 1085 l 446 1076 l 596 1076 l 749 1267 z "},"Ô":{"ha":1090,"x_min":0,"x_max":0,"o":"m 525 992 b 25 479 189 992 25 735 b 525 -22 25 224 183 -22 b 1024 481 867 -22 1021 229 b 525 992 1026 735 860 992 z m 525 825 b 843 478 754 825 846 642 b 525 146 840 318 754 146 b 206 476 296 146 210 317 b 525 825 201 640 296 825 z m 289 1086 l 289 1078 l 461 1078 l 540 1160 l 621 1078 l 793 1078 l 793 1086 l 588 1278 l 494 1278 z "},"Õ":{"ha":1090,"x_min":0,"x_max":0,"o":"m 525 992 b 25 479 189 992 25 735 b 525 -22 25 224 183 -22 b 1024 481 867 -22 1021 229 b 525 992 1026 735 860 992 z m 525 825 b 843 478 754 825 846 642 b 525 146 840 318 754 146 b 206 476 296 146 210 317 b 525 825 201 640 296 825 z m 411 1076 b 593 1076 465 1178 525 1096 b 768 1199 658 1060 728 1092 l 657 1251 b 485 1253 614 1165 550 1238 b 306 1133 393 1274 339 1215 z "},"Ö":{"ha":1090,"x_min":0,"x_max":0,"o":"m 267 1164 b 461 1164 267 1036 461 1036 b 267 1164 461 1293 267 1293 z m 608 1164 b 803 1164 608 1036 803 1036 b 608 1164 803 1293 608 1293 z m 525 992 b 1024 481 860 992 1026 735 b 525 -22 1021 229 867 -22 b 25 479 183 -22 25 224 b 525 992 25 735 189 992 z m 525 825 b 206 476 296 825 201 640 b 525 146 210 317 296 146 b 843 478 754 146 840 318 b 525 825 846 642 754 825 z "},"×":{"ha":618,"x_min":0,"x_max":0,"o":"m 174 682 l 61 574 l 194 440 l 58 307 l 168 197 l 301 335 l 442 193 l 547 294 l 404 436 l 543 579 l 438 685 l 303 547 z "},"Ù":{"ha":1032,"x_min":0,"x_max":0,"o":"m 739 971 l 739 414 b 501 146 739 247 653 146 b 250 414 350 146 250 239 l 250 971 l 68 971 l 68 414 b 500 -21 68 121 267 -21 b 921 414 744 -21 921 126 l 921 971 z m 301 1274 l 454 1083 l 604 1083 l 604 1092 l 501 1281 l 301 1281 z "},"Ú":{"ha":1032,"x_min":0,"x_max":0,"o":"m 921 971 l 921 414 b 500 -21 921 126 744 -21 b 68 414 267 -21 68 121 l 68 971 l 250 971 l 250 414 b 501 146 250 239 350 146 b 739 414 653 146 739 247 l 739 971 z m 715 1279 l 515 1279 l 413 1090 l 413 1082 l 563 1082 l 715 1272 z "},"Û":{"ha":1032,"x_min":0,"x_max":0,"o":"m 739 971 l 739 414 b 501 146 739 247 653 146 b 250 414 350 146 250 239 l 250 971 l 68 971 l 68 414 b 500 -21 68 121 267 -21 b 921 414 744 -21 921 126 l 921 971 z m 247 1088 l 247 1079 l 419 1079 l 499 1161 l 579 1079 l 751 1079 l 751 1088 l 546 1279 l 453 1279 z "},"Ü":{"ha":1032,"x_min":0,"x_max":0,"o":"m 921 971 l 921 414 b 500 -21 921 126 744 -21 b 68 414 267 -21 68 121 l 68 971 l 250 971 l 250 414 b 501 146 250 239 350 146 b 739 414 653 146 739 247 l 739 971 z m 239 1160 b 433 1160 239 1032 433 1032 b 239 1160 433 1289 239 1289 z m 585 1160 b 779 1160 585 1032 779 1032 b 585 1160 779 1289 585 1289 z "},"Ý":{"ha":999,"x_min":0,"x_max":0,"o":"m 478 571 l 736 972 l 957 972 l 957 964 l 569 401 l 569 0 l 386 0 l 386 401 l 13 964 l 13 972 l 231 972 z m 694 1268 l 494 1268 l 392 1079 l 392 1071 l 542 1071 l 694 1261 z "},"à":{"ha":849,"x_min":0,"x_max":0,"o":"m 593 590 b 375 701 554 658 467 701 b 18 343 175 703 18 579 b 371 -21 18 103 168 -22 b 593 100 447 -19 554 19 l 601 0 l 761 0 l 761 685 l 599 685 z m 390 550 b 390 135 657 550 657 135 b 188 343 278 135 188 213 b 390 550 188 474 278 550 z m 194 978 l 347 788 l 497 788 l 497 796 l 394 985 l 194 985 z "},"á":{"ha":849,"x_min":0,"x_max":0,"o":"m 593 590 l 599 685 l 761 685 l 761 0 l 601 0 l 593 100 b 371 -21 554 19 447 -19 b 18 343 168 -22 18 103 b 375 701 18 579 175 703 b 593 590 467 701 554 658 z m 390 550 b 188 343 278 550 188 474 b 390 135 188 213 278 135 b 390 550 657 135 657 550 z m 583 986 l 383 986 l 281 797 l 281 789 l 431 789 l 583 979 z "},"â":{"ha":849,"x_min":0,"x_max":0,"o":"m 593 590 b 375 701 554 658 467 701 b 18 343 175 703 18 579 b 371 -21 18 103 168 -22 b 593 100 447 -19 554 19 l 601 0 l 761 0 l 761 685 l 599 685 z m 390 550 b 390 135 657 550 657 135 b 188 343 278 135 188 213 b 390 550 188 474 278 550 z m 165 799 l 165 790 l 338 790 l 417 872 l 497 790 l 669 790 l 669 799 l 464 990 l 371 990 z "},"ã":{"ha":849,"x_min":0,"x_max":0,"o":"m 593 590 b 375 701 554 658 467 701 b 18 343 175 703 18 579 b 371 -21 18 103 168 -22 b 593 100 447 -19 554 19 l 601 0 l 761 0 l 761 685 l 599 685 z m 390 550 b 390 135 657 550 657 135 b 188 343 278 135 188 213 b 390 550 188 474 278 550 z m 292 813 b 474 813 346 914 406 832 b 649 935 539 796 608 828 l 538 988 b 365 989 494 901 431 974 b 186 869 274 1010 219 951 z "},"ä":{"ha":849,"x_min":0,"x_max":0,"o":"m 593 590 l 599 685 l 761 685 l 761 0 l 601 0 l 593 100 b 371 -21 554 19 447 -19 b 18 343 168 -22 18 103 b 375 701 18 579 175 703 b 593 590 467 701 554 658 z m 390 550 b 188 343 278 550 188 474 b 390 135 188 213 278 135 b 390 550 657 135 657 550 z m 153 910 b 347 910 153 782 347 782 b 153 910 347 1039 153 1039 z m 499 910 b 693 910 499 782 693 782 b 499 910 693 1039 499 1039 z "},"å":{"ha":849,"x_min":0,"x_max":0,"o":"m 593 590 b 375 701 554 658 467 701 b 18 343 175 703 18 579 b 371 -21 18 103 168 -22 b 593 100 447 -19 554 19 l 601 0 l 761 0 l 761 685 l 599 685 z m 390 550 b 390 135 657 550 657 135 b 188 343 278 135 188 213 b 390 550 188 474 278 550 z m 224 938 b 401 776 224 831 314 776 b 578 938 489 776 578 831 b 401 1099 578 1044 489 1099 b 224 938 314 1099 224 1044 z m 399 1007 b 399 871 500 1007 506 871 b 399 1007 297 871 296 1007 z "},"÷":{"ha":719,"x_min":0,"x_max":0,"o":"m 26 533 l 647 533 l 647 369 l 26 369 z m 240 190 b 435 190 240 63 435 63 b 240 190 435 319 240 319 z m 240 707 b 435 707 240 579 435 579 b 240 707 435 836 240 836 z "},"è":{"ha":810,"x_min":0,"x_max":0,"o":"m 735 282 b 389 706 761 564 618 706 b 25 347 167 706 25 556 b 401 -18 25 128 165 -18 b 696 93 506 -18 624 18 l 588 200 b 404 136 549 160 467 136 b 200 282 285 136 211 197 z m 203 422 b 394 556 228 511 303 556 b 572 422 492 556 561 511 z m 185 983 l 338 793 l 488 793 l 488 801 l 385 990 l 185 990 z "},"é":{"ha":810,"x_min":0,"x_max":0,"o":"m 735 282 l 200 282 b 404 136 211 197 285 136 b 588 200 467 136 549 160 l 696 93 b 401 -18 624 18 506 -18 b 25 347 165 -18 25 128 b 389 706 25 556 167 706 b 735 282 618 706 761 564 z m 203 422 l 572 422 b 394 556 561 511 492 556 b 203 422 303 556 228 511 z m 589 993 l 389 993 l 286 804 l 286 796 l 436 796 l 589 986 z "},"ê":{"ha":810,"x_min":0,"x_max":0,"o":"m 735 282 b 389 706 761 564 618 706 b 25 347 167 706 25 556 b 401 -18 25 128 165 -18 b 696 93 506 -18 624 18 l 588 200 b 404 136 549 160 467 136 b 200 282 285 136 211 197 z m 203 422 b 394 556 228 511 303 556 b 572 422 492 556 561 511 z m 146 799 l 146 790 l 318 790 l 397 872 l 478 790 l 650 790 l 650 799 l 444 990 l 351 990 z "},"ë":{"ha":810,"x_min":0,"x_max":0,"o":"m 156 890 b 350 890 156 763 350 763 b 156 890 350 1019 156 1019 z m 451 890 b 646 890 451 763 646 763 b 451 890 646 1019 451 1019 z m 735 282 l 200 282 b 404 136 211 197 285 136 b 588 200 467 136 549 160 l 696 93 b 401 -18 624 18 506 -18 b 25 347 165 -18 25 128 b 389 706 25 556 167 706 b 735 282 618 706 761 564 z m 203 422 l 572 422 b 394 556 561 511 492 556 b 203 422 303 556 228 511 z "},"ì":{"ha":331,"x_min":0,"x_max":0,"o":"m -6 963 l 97 764 l 235 764 l 235 772 l 176 969 l -6 969 z m 233 0 l 233 661 l 56 661 l 56 0 z "},"í":{"ha":331,"x_min":0,"x_max":0,"o":"m 300 969 l 118 969 l 60 772 l 60 764 l 197 764 l 300 963 z m 56 0 l 56 661 l 233 661 l 233 0 z "},"î":{"ha":331,"x_min":0,"x_max":0,"o":"m 233 0 l 233 661 l 56 661 l 56 0 z m -68 775 l -68 767 l 83 767 l 153 853 l 222 767 l 374 767 l 374 775 l 193 978 l 113 978 z "},"ï":{"ha":331,"x_min":0,"x_max":0,"o":"m -69 888 b 125 888 -69 760 125 760 b -69 888 125 1017 -69 1017 z m 188 888 b 382 888 188 760 382 760 b 188 888 382 1017 188 1017 z m 56 0 l 56 661 l 233 661 l 233 0 z "},"ñ":{"ha":835,"x_min":0,"x_max":0,"o":"m 729 0 l 729 360 b 439 696 729 575 600 696 b 214 593 353 696 283 661 l 203 686 l 51 686 l 51 0 l 219 0 l 219 350 b 394 542 219 454 290 542 b 560 358 503 542 560 463 l 560 0 z m 260 817 b 442 817 314 918 374 836 b 617 939 507 800 576 832 l 506 992 b 333 993 463 906 399 978 b 154 874 242 1014 188 956 z "},"ò":{"ha":797,"x_min":0,"x_max":0,"o":"m 378 699 b 24 342 160 699 24 538 b 379 -15 24 144 157 -15 b 736 342 601 -15 736 144 b 378 699 736 538 596 699 z m 379 544 b 565 342 493 544 565 444 b 379 140 565 238 503 140 b 193 342 256 140 193 238 b 379 544 193 444 257 544 z m 179 974 l 332 783 l 482 783 l 482 792 l 379 981 l 179 981 z "},"ó":{"ha":797,"x_min":0,"x_max":0,"o":"m 378 699 b 736 342 596 699 736 538 b 379 -15 736 144 601 -15 b 24 342 157 -15 24 144 b 378 699 24 538 160 699 z m 379 544 b 193 342 257 544 193 444 b 379 140 193 238 256 140 b 565 342 503 140 565 238 b 379 544 565 444 493 544 z m 597 978 l 397 978 l 294 789 l 294 781 l 444 781 l 597 971 z "},"ô":{"ha":797,"x_min":0,"x_max":0,"o":"m 378 699 b 24 342 160 699 24 538 b 379 -15 24 144 157 -15 b 736 342 601 -15 736 144 b 378 699 736 538 596 699 z m 379 544 b 565 342 493 544 565 444 b 379 140 565 238 503 140 b 193 342 256 140 193 238 b 379 544 193 444 257 544 z m 126 785 l 126 776 l 299 776 l 378 858 l 458 776 l 631 776 l 631 785 l 425 976 l 332 976 z "},"õ":{"ha":797,"x_min":0,"x_max":0,"o":"m 378 699 b 24 342 160 699 24 538 b 379 -15 24 144 157 -15 b 736 342 601 -15 736 144 b 378 699 736 538 596 699 z m 379 544 b 565 342 493 544 565 444 b 379 140 565 238 503 140 b 193 342 256 140 193 238 b 379 544 193 444 257 544 z m 257 807 b 439 807 311 908 371 826 b 614 929 504 790 574 822 l 503 982 b 331 983 460 896 396 968 b 151 864 239 1004 185 946 z "},"ö":{"ha":797,"x_min":0,"x_max":0,"o":"m 139 900 b 333 900 139 772 333 772 b 139 900 333 1029 139 1029 z m 425 900 b 619 900 425 772 619 772 b 425 900 619 1029 425 1029 z m 378 699 b 736 342 596 699 736 538 b 379 -15 736 144 601 -15 b 24 342 157 -15 24 144 b 378 699 24 538 160 699 z m 379 544 b 193 342 257 544 193 444 b 379 140 193 238 256 140 b 565 342 503 140 565 238 b 379 544 565 444 493 544 z "},"ù":{"ha":836,"x_min":0,"x_max":0,"o":"m 60 685 l 60 325 b 343 -11 60 113 179 -11 b 575 92 439 -11 504 22 l 586 -1 l 738 -1 l 738 685 l 569 685 l 569 335 b 394 143 569 231 499 143 b 229 326 286 143 229 222 l 229 685 z m 194 965 l 347 775 l 497 775 l 497 783 l 394 972 l 194 972 z "},"ú":{"ha":836,"x_min":0,"x_max":0,"o":"m 229 685 l 229 326 b 394 143 229 222 286 143 b 569 335 499 143 569 231 l 569 685 l 738 685 l 738 -1 l 586 -1 l 575 92 b 343 -11 504 22 439 -11 b 60 325 179 -11 60 113 l 60 685 z m 617 972 l 417 972 l 314 783 l 314 775 l 464 775 l 617 965 z "},"û":{"ha":836,"x_min":0,"x_max":0,"o":"m 60 685 l 60 325 b 343 -11 60 113 179 -11 b 575 92 439 -11 504 22 l 586 -1 l 738 -1 l 738 685 l 569 685 l 569 335 b 394 143 569 231 499 143 b 229 326 286 143 229 222 l 229 685 z m 160 786 l 160 778 l 332 778 l 411 860 l 492 778 l 664 778 l 664 786 l 458 978 l 365 978 z "},"ü":{"ha":836,"x_min":0,"x_max":0,"o":"m 229 685 l 229 326 b 394 143 229 222 286 143 b 569 335 499 143 569 231 l 569 685 l 738 685 l 738 -1 l 586 -1 l 575 92 b 343 -11 504 22 439 -11 b 60 325 179 -11 60 113 l 60 685 z m 135 896 b 329 896 135 768 329 768 b 135 896 329 1025 135 1025 z m 481 896 b 675 896 481 768 675 768 b 481 896 675 1025 481 1025 z "},"ý":{"ha":779,"x_min":0,"x_max":0,"o":"m 746 685 l 328 -286 l 142 -286 l 269 11 l -4 685 l 193 685 l 297 389 l 363 196 l 433 385 l 558 685 z m 564 974 l 364 974 l 261 785 l 261 776 l 411 776 l 564 967 z "},"ÿ":{"ha":779,"x_min":0,"x_max":0,"o":"m 746 685 l 328 -286 l 142 -286 l 269 11 l -4 685 l 193 685 l 297 389 l 363 196 l 433 385 l 558 685 z m 117 885 b 311 885 117 757 311 757 b 117 885 311 1014 117 1014 z m 463 885 b 657 885 463 757 657 757 b 463 885 657 1014 463 1014 z "},"Ì":{"ha":356,"x_min":0,"x_max":0,"o":"m 251 0 l 251 972 l 69 972 l 69 0 z m -62 1251 l 90 1061 l 240 1061 l 240 1069 l 138 1258 l -62 1258 z "},"Í":{"ha":356,"x_min":0,"x_max":0,"o":"m 69 0 l 69 972 l 251 972 l 251 0 z m 382 1258 l 182 1258 l 79 1069 l 79 1061 l 229 1061 l 382 1251 z "},"Î":{"ha":356,"x_min":0,"x_max":0,"o":"m 251 0 l 251 972 l 69 972 l 69 0 z m -89 1061 l -89 1053 l 83 1053 l 163 1135 l 243 1053 l 415 1053 l 415 1061 l 210 1253 l 117 1253 z "},"Ï":{"ha":356,"x_min":0,"x_max":0,"o":"m -90 1150 b 104 1150 -90 1022 104 1022 b -90 1150 104 1279 -90 1279 z m 207 1150 b 401 1150 207 1022 401 1022 b 207 1150 401 1279 207 1279 z m 69 0 l 69 972 l 251 972 l 251 0 z "},"À":{"ha":1040,"x_min":0,"x_max":0,"o":"m 840 0 l 1040 0 l 604 972 l 404 972 l -32 0 l 167 0 l 250 183 l 758 183 z m 685 354 l 324 354 l 504 768 z m 269 1263 l 422 1072 l 572 1072 l 572 1081 l 469 1269 l 269 1269 z "},"Ä":{"ha":1040,"x_min":0,"x_max":0,"o":"m 758 183 l 250 183 l 167 0 l -32 0 l 404 972 l 604 972 l 1040 0 l 840 0 z m 685 354 l 504 768 l 324 354 l 685 354 z m 232 1144 b 426 1144 232 1017 426 1017 b 232 1144 426 1274 232 1274 z m 578 1144 b 772 1144 578 1017 772 1017 b 578 1144 772 1274 578 1274 z "},"Æ":{"ha":1267,"x_min":0,"x_max":0,"o":"m 1192 176 l 782 176 l 782 400 l 1172 400 l 1172 569 l 782 569 l 782 800 l 1188 800 l 1188 972 l 588 972 l -29 0 l 181 0 l 304 196 l 610 196 l 610 0 l 1192 0 z m 407 358 l 624 746 l 610 532 l 610 358 z "},"Ð":{"ha":1015,"x_min":0,"x_max":0,"o":"m -17 407 l 81 407 l 81 0 l 440 0 b 944 506 786 0 944 238 b 440 972 944 761 768 972 l 81 972 l 81 563 l -17 563 z m 257 407 l 444 407 l 444 563 l 257 563 l 257 807 l 440 807 b 764 500 651 807 764 694 b 440 168 764 306 661 168 l 257 168 z "},"ß":{"ha":875,"x_min":0,"x_max":0,"o":"m 349 3 b 815 297 597 -57 815 39 b 599 544 815 385 761 507 b 746 715 693 565 746 639 b 417 988 746 899 586 988 b 86 714 258 988 86 896 l 86 0 l 268 0 b 267 389 268 106 267 279 l 267 715 b 419 831 269 789 333 831 b 567 715 489 831 571 800 b 411 624 564 644 478 624 l 350 624 l 350 463 l 415 463 b 635 292 521 463 635 403 b 347 157 635 193 549 106 z "},"/":{"ha":632,"x_min":0,"x_max":0,"o":"m 446 1064 l -17 -114 l 160 -114 l 624 1064 z "},"Þ":{"ha":939,"x_min":0,"x_max":0,"o":"m 68 0 l 251 0 l 251 161 l 526 161 b 526 813 1003 161 1001 813 b 250 813 433 813 342 813 l 250 971 l 69 971 z m 251 644 l 526 644 b 526 325 760 644 761 325 l 251 325 z "},"…":{"ha":1008,"x_min":0,"x_max":0,"o":"m 51 88 b 251 88 51 -44 251 -44 b 51 88 251 219 51 219 z m 368 88 b 568 88 368 -44 568 -44 b 368 88 568 219 368 219 z m 685 88 b 885 88 685 -44 885 -44 b 685 88 885 219 685 219 z "},"œ":{"ha":1318,"x_min":0,"x_max":0,"o":"m 1256 282 b 910 703 1282 564 1139 703 b 649 563 789 703 690 643 b 381 700 596 650 493 700 b 26 342 163 700 26 538 b 382 -15 26 144 160 -15 b 640 122 497 -15 579 33 b 922 -18 694 31 794 -18 b 1217 93 1026 -18 1144 18 l 1108 200 b 925 136 1069 160 988 136 b 725 282 806 136 736 197 z m 382 544 b 568 342 496 544 568 444 b 382 140 568 238 506 140 b 196 342 258 140 196 238 b 382 544 196 444 260 544 z m 724 422 b 915 556 749 511 824 556 b 1093 422 1013 556 1082 511 z "},"Ÿ":{"ha":969,"x_min":0,"x_max":0,"o":"m 478 571 l 736 972 l 957 972 l 957 964 l 569 401 l 569 0 l 386 0 l 386 401 l 13 964 l 13 972 l 231 972 z m 208 1160 b 403 1160 208 1032 403 1032 b 208 1160 403 1289 208 1289 z m 554 1160 b 749 1160 554 1032 749 1032 b 554 1160 749 1289 554 1289 z "},"¼":{"ha":1063,"x_min":0,"x_max":0,"o":"m 789 510 l 554 194 l 560 90 l 826 90 l 826 0 l 949 0 l 949 90 l 996 90 l 996 197 l 949 197 l 949 510 z m 826 197 l 681 197 l 826 392 z m 693 982 l 136 -40 l 269 -40 l 828 982 z m 50 465 l 310 465 l 310 571 l 242 571 l 242 976 l 56 976 l 56 872 l 119 872 l 119 571 l 50 571 z "},"½":{"ha":1125,"x_min":0,"x_max":0,"o":"m 693 982 l 136 -40 l 269 -40 l 828 982 z m 50 465 l 310 465 l 310 571 l 242 571 l 242 976 l 56 976 l 56 872 l 119 872 l 119 571 l 50 571 z m 765 357 b 843 408 767 392 803 408 b 929 350 893 408 929 393 b 640 128 929 242 640 332 b 640 -6 640 83 640 39 l 1043 -6 l 1043 110 l 768 110 l 768 128 b 1053 350 768 235 1053 140 b 840 515 1053 467 964 515 b 643 357 746 515 644 465 z "},"¾":{"ha":1174,"x_min":0,"x_max":0,"o":"m 872 510 l 638 194 l 643 90 l 910 90 l 910 0 l 1032 0 l 1032 90 l 1079 90 l 1079 197 l 1032 197 l 1032 510 z m 910 197 l 764 197 l 910 392 z m 789 982 l 232 -40 l 365 -40 l 924 982 z m 260 696 b 344 636 325 696 344 667 b 258 585 344 600 300 585 b 175 632 219 585 186 597 l 53 632 b 254 478 54 521 161 478 b 468 639 350 478 468 518 b 392 740 468 679 440 725 b 457 838 435 753 457 799 b 257 990 456 942 351 990 b 61 842 167 990 61 947 l 167 842 b 256 890 176 883 213 890 b 338 838 324 890 338 853 b 254 786 336 792 306 786 l 183 786 l 183 696 z "},"Ç":{"ha":917,"x_min":0,"x_max":0,"o":"m 336 -282 b 704 -244 421 -419 669 -406 b 561 -85 717 -175 689 -89 l 581 -22 b 925 122 711 -17 831 29 l 800 249 b 556 150 736 185 640 150 b 221 479 315 150 222 318 b 556 817 219 642 321 817 b 790 725 640 817 726 788 l 913 843 b 556 992 813 942 688 992 b 40 479 204 992 39 733 b 460 -15 42 250 167 24 l 417 -144 l 457 -176 b 575 -225 510 -139 590 -172 b 410 -219 558 -281 450 -274 z "},"Ë":{"ha":867,"x_min":0,"x_max":0,"o":"m 793 0 l 65 0 b 65 972 65 324 65 649 l 793 972 l 793 794 l 247 794 l 247 571 l 774 571 l 774 400 l 247 400 l 247 181 l 793 181 z m 175 1167 b 369 1167 175 1039 369 1039 b 175 1167 369 1296 175 1296 z m 521 1167 b 715 1167 521 1039 715 1039 b 521 1167 715 1296 521 1296 z "},"Ø":{"ha":1090,"x_min":0,"x_max":0,"o":"m 525 992 b 25 479 189 992 25 735 b 192 89 25 329 79 185 l 78 -100 l 254 -100 l 322 13 b 525 -22 381 -10 447 -22 b 1024 481 867 -22 1021 229 b 846 883 1025 632 965 785 l 954 1064 l 776 1064 l 714 960 b 525 992 658 979 594 992 z m 525 146 b 411 161 482 146 444 151 l 754 732 b 843 478 817 664 844 568 b 525 146 840 318 754 146 z m 525 825 b 625 811 561 825 594 819 l 285 246 b 206 476 232 308 207 394 b 525 825 201 640 296 825 z "},"æ":{"ha":1357,"x_min":0,"x_max":0,"o":"m 1276 282 b 956 704 1331 539 1143 700 b 718 599 868 706 781 681 l 718 685 l 590 685 l 585 590 b 367 701 546 658 458 701 b 10 343 167 703 10 579 b 363 -21 10 103 160 -22 b 585 100 439 -19 546 19 l 586 0 l 711 0 l 718 89 b 943 -18 763 21 836 -18 b 1238 93 1047 -18 1165 18 l 1129 200 b 946 136 1090 160 1008 136 b 742 282 826 136 753 197 z m 382 550 b 382 135 660 550 660 135 b 179 343 269 135 179 213 b 382 550 179 474 269 550 z m 744 422 b 936 556 769 511 844 556 b 1114 422 1033 556 1103 511 z "},"ç":{"ha":663,"x_min":0,"x_max":0,"o":"m 151 -265 b 519 -229 236 -399 485 -385 b 376 -74 532 -161 504 -78 l 393 -21 b 643 88 489 -18 567 13 l 529 199 b 379 142 488 157 433 142 b 185 342 274 142 185 211 b 382 544 185 461 268 544 b 519 490 429 544 479 526 l 626 603 b 379 704 551 676 476 704 b 15 342 181 704 15 585 b 275 -8 15 142 125 26 l 232 -132 l 272 -162 b 390 -210 325 -126 406 -158 b 225 -204 374 -264 265 -257 z "},"ø":{"ha":797,"x_min":0,"x_max":0,"o":"m 378 699 b 24 342 160 699 24 538 b 139 68 24 232 64 133 l 46 -90 l 206 -90 l 260 1 b 379 -15 296 -8 336 -15 b 736 342 601 -15 736 144 b 619 611 736 449 694 546 l 711 767 l 551 767 l 500 679 b 378 699 463 692 422 699 z m 379 544 b 418 540 392 544 406 543 l 228 218 b 193 342 204 253 193 296 b 379 544 193 444 257 544 z m 379 140 b 343 143 367 140 354 140 l 531 460 b 565 342 553 425 565 383 b 379 140 565 238 503 140 z "}}}
